<svg width="16" height="16" viewBox="0 0 128 128" fill="none" xmlns="http://www.w3.org/2000/svg">
<g clip-path="url(#clip0_9_12490)">
<path d="M64 128C28.6538 128 0 99.3462 0 64C0 28.6538 28.6538 0 64 0C99.3462 0 128 28.6538 128 64C128 99.3462 99.3462 128 64 128Z" fill="white"/>
<path d="M20.212 68.0559C21.576 64.6279 25.152 59.6519 29.76 58.3199C30.372 56.7519 31.276 54.4559 32.12 52.7639C31.98 51.4679 31.928 50.1319 31.928 48.7799C31.928 43.8999 32.96 39.6239 36.076 36.4359C37.532 34.9479 39.336 33.8079 41.48 32.9479C46.608 28.7799 54.072 25.2759 64.076 25.2759C74.08 25.2759 81.388 28.7799 86.516 32.9479C88.656 33.8039 90.464 34.9479 91.916 36.4359C95.032 39.6239 96.064 43.8999 96.064 48.7799C96.064 50.1319 96.016 51.4679 95.872 52.7639C96.716 54.4559 97.62 56.7519 98.232 58.3199C102.844 59.6559 106.416 64.6319 107.78 68.0559C107.904 68.3719 107.968 68.7079 107.988 69.0479V79.1919C107.968 79.5879 107.884 79.9719 107.688 80.3159C104.532 85.7959 86.216 98.7279 63.992 98.7279C41.768 98.7279 23.448 85.7959 20.296 80.3159C20.064 79.9159 19.992 79.4559 19.992 78.9959V69.2399C19.992 68.8359 20.056 68.4359 20.204 68.0599L20.212 68.0559ZM61.252 44.2439C61.248 41.4239 60.632 39.5879 59.648 38.4599C58.396 37.0279 55.812 35.9319 50.364 36.5199C44.844 37.1159 41.76 38.4879 40.012 40.2759C38.32 42.0079 37.428 44.5999 37.428 48.7759C37.428 53.2159 38.068 55.8359 39.472 57.4319C40.808 58.9479 43.444 60.1839 49.212 60.1839C53.648 60.1839 56.18 58.7439 57.804 56.7479C59.544 54.6079 60.524 51.4679 61.02 47.5959C61.176 46.3799 61.252 45.2919 61.252 44.3199V44.2439ZM87.992 40.2759C86.244 38.4879 83.16 37.1159 77.64 36.5199C72.192 35.9319 69.608 37.0279 68.356 38.4599C67.372 39.5879 66.756 41.4199 66.748 44.2439V44.3199C66.748 45.2919 66.824 46.3799 66.98 47.5959C67.476 51.4679 68.456 54.6079 70.196 56.7479C71.816 58.7439 74.352 60.1839 78.788 60.1839C84.556 60.1839 87.192 58.9519 88.528 57.4319C89.936 55.8359 90.572 53.2159 90.572 48.7759C90.572 44.5999 89.68 42.0079 87.988 40.2759H87.992ZM34.68 85.1999C39.94 88.0599 51.224 93.1879 64.004 93.1879C76.784 93.1879 88.068 88.0599 93.324 85.1999V61.0679L92.968 60.6839C92.868 60.8159 92.764 60.9439 92.656 61.0679C89.748 64.3639 85.116 65.6799 78.792 65.6799C72.968 65.6799 68.756 63.6839 65.936 60.2119C65.456 59.6199 65.024 58.9959 64.636 58.3479H63.648H63.372C62.984 58.9999 62.548 59.6239 62.072 60.2119C59.252 63.6839 55.04 65.6799 49.216 65.6799C42.892 65.6799 38.26 64.3639 35.352 61.0679C35.16 60.8479 35.04 60.6839 35.04 60.6839L34.684 61.0679L34.68 85.1999ZM52.084 72.3359V80.1279C52.084 81.8999 53.52 83.3359 55.292 83.3359C57.064 83.3359 58.5 81.8999 58.5 80.1279V72.3359C58.5 70.5639 57.064 69.1279 55.292 69.1279C53.52 69.1279 52.084 70.5639 52.084 72.3359ZM69.5 72.3359V80.1279C69.5 81.8999 70.936 83.3359 72.708 83.3359C74.48 83.3359 75.916 81.8999 75.916 80.1279V72.3359C75.916 70.5639 74.48 69.1279 72.708 69.1279C70.936 69.1279 69.5 70.5639 69.5 72.3359Z" fill="#2C2F30"/>
<rect width="20" height="16" transform="matrix(-1 0 0 1 36 72)" fill="white"/>
<path d="M10.4741 72.9107L25.6091 56.6217C25.9505 56.2404 26.4469 56 27 56C27.5531 56 28.051 56.2404 28.3909 56.6217L43.5274 72.9107C43.8211 73.2386 44 73.6704 44 74.1437C44 75.1676 43.1652 75.9985 42.1366 75.9985H34C34 83.4176 38.2258 92.8493 45.2606 98.6659C45.7048 99.0042 46 99.5443 46 100.145C46 101.169 45.1652 102 44.1366 102C31.3654 102 20 89.9405 20 75.9985L11.8634 76C10.8348 76 10 75.1691 10 74.1452C10 73.6719 10.1789 73.2401 10.4726 72.9122L10.4741 72.9107Z" fill="url(#paint0_linear_9_12490)"/>
<path d="M10.4741 72.9107L25.6091 56.6217C25.9505 56.2404 26.4469 56 27 56C27.5531 56 28.051 56.2404 28.3909 56.6217L43.5274 72.9107C43.8211 73.2386 44 73.6704 44 74.1437C44 75.1676 43.1652 75.9985 42.1366 75.9985H34C34 83.4176 38.2258 92.8493 45.2606 98.6659C45.7048 99.0042 46 99.5443 46 100.145C46 101.169 45.1652 102 44.1366 102C31.3654 102 20 89.9405 20 75.9985L11.8634 76C10.8348 76 10 75.1691 10 74.1452C10 73.6719 10.1789 73.2401 10.4726 72.9122L10.4741 72.9107Z" fill="url(#paint1_linear_9_12490)" fill-opacity="0.7"/>
</g>
<defs>
<linearGradient id="paint0_linear_9_12490" x1="19" y1="53" x2="46" y2="106" gradientUnits="userSpaceOnUse">
<stop stop-color="#1EC8B0"/>
<stop offset="1" stop-color="#2764E7"/>
</linearGradient>
<linearGradient id="paint1_linear_9_12490" x1="16" y1="53" x2="46" y2="111" gradientUnits="userSpaceOnUse">
<stop offset="0.53288" stop-color="#FF6CE8" stop-opacity="0"/>
<stop offset="1" stop-color="#FF6CE8"/>
</linearGradient>
<clipPath id="clip0_9_12490">
<rect width="128" height="128" fill="white" transform="matrix(-1 0 0 1 128 0)"/>
</clipPath>
</defs>
</svg>
