<svg width="16" height="16" viewBox="0 0 24 24" fill="none" xmlns="http://www.w3.org/2000/svg">
<g clip-path="url(#clip0_525_18514)">
<path d="M3.2202 11.4691C3.51267 11.1766 3.98824 11.1767 4.28075 11.4691L7.28075 14.4691C7.57325 14.7616 7.57325 15.2372 7.28075 15.5297C7.13389 15.6749 6.94223 15.7483 6.75047 15.7484C6.55855 15.7484 6.3662 15.6765 6.21922 15.5297L4.50047 13.8109V16.5004C4.50067 18.5687 6.18209 20.2504 8.25047 20.2504C8.66426 20.2506 8.99852 20.5865 8.99852 21.0004C8.99832 21.4142 8.66239 21.7504 8.24852 21.7504C5.35364 21.7504 2.99872 19.3952 2.99852 16.5004V13.8109L1.27977 15.5297C0.987331 15.8221 0.511738 15.822 0.219222 15.5297C-0.0732776 15.2372 -0.0732776 14.7616 0.219222 14.4691L3.2202 11.4691Z" fill="#6C707E"/>
<path fill-rule="evenodd" clip-rule="evenodd" d="M13.9985 1.64294C14.6704 1.46902 15.3724 1.45488 16.0503 1.60485C16.7266 1.62438 17.3925 1.78188 18.0073 2.06677C18.6207 2.35172 19.1715 2.7582 19.6245 3.26208C20.289 4.21458 20.6102 5.3643 20.5337 6.5238C20.5591 7.2617 20.4451 7.99827 20.2007 8.69567L20.4194 9.79528L20.5054 9.83435C21.1052 10.1344 21.609 10.5965 21.9614 11.1664L21.9604 11.1634C22.3127 11.7348 22.4985 12.3916 22.4985 13.0619V14.7211C22.491 14.9805 22.4205 15.2344 22.2915 15.4593C22.1955 15.6317 22.0815 15.7938 21.9526 15.9437C21.7081 16.2167 21.4427 16.472 21.1577 16.7045C20.8877 16.9294 20.6202 17.1255 20.4253 17.2679C20.1148 17.4959 19.791 17.7059 19.4565 17.8978C18.9075 18.2128 18.3389 18.4946 17.7554 18.7406C15.9374 19.5281 13.98 19.9471 11.9985 19.9681C11.3805 19.9621 10.7667 19.9032 10.1577 19.8207C9.76165 19.1774 9.05685 18.7455 8.24852 18.7455C7.23453 18.7455 6.37622 18.0717 6.09422 17.1508C6.30421 17.2137 6.52503 17.2455 6.74852 17.2455C7.00636 17.2455 7.25677 17.1946 7.49364 17.1107C8.93214 17.6687 10.4555 17.9789 12.0005 17.9984C13.7177 17.9759 15.414 17.6129 16.9888 16.9291C17.4987 16.7131 17.9956 16.4672 18.477 16.1927L18.563 16.1429L18.5552 16.1312V10.5394L18.5249 10.3871C17.8034 10.6631 17.0341 10.7929 16.2632 10.7689C15.6137 10.8064 14.9625 10.7102 14.352 10.4867C13.74 10.2632 13.182 9.91761 12.7095 9.46911C12.4276 9.18119 12.1894 8.85574 12.0005 8.50036C11.8115 8.86036 11.5706 9.19081 11.2856 9.48181C10.8133 9.92853 10.2542 10.275 9.64403 10.4984C9.03364 10.7219 8.38228 10.8181 7.73289 10.7806C6.96039 10.8061 6.1917 10.6773 5.4702 10.3998L5.44774 10.5131L5.34129 10.4066C4.91543 9.98242 4.35016 9.74852 3.75047 9.74841C3.69647 9.74841 3.64334 9.75856 3.58934 9.76306L3.80418 8.68982C3.55973 7.99395 3.44574 7.2558 3.47118 6.51794C3.39468 5.35994 3.71586 4.20872 4.38036 3.25622C4.83475 2.75392 5.38666 2.3478 6.00145 2.06286C6.61645 1.77936 7.28439 1.62338 7.96239 1.60388C8.63881 1.45543 9.34079 1.46896 10.0112 1.64294C10.6815 1.81843 11.3009 2.14797 11.8198 2.60681C11.8843 2.67581 11.9464 2.74815 12.0034 2.82165C12.0604 2.74968 12.1215 2.67578 12.186 2.60681C12.705 2.14784 13.3266 1.81693 13.9985 1.64294ZM15.8413 3.56091C14.4706 3.40949 13.9083 3.66606 13.6352 3.95251C13.3622 4.23901 13.16 4.84367 13.313 6.07067C13.3535 6.8191 13.6367 7.53483 14.1196 8.10778C14.409 8.3686 14.7494 8.56488 15.1196 8.68786C15.4886 8.80936 15.8805 8.85471 16.269 8.81872C17.4795 8.81872 17.9476 8.55572 18.1606 8.31872H18.1694C18.5113 7.78484 18.6536 7.14921 18.5727 6.52087H18.5747C18.6452 5.80551 18.4757 5.08826 18.0903 4.48083C17.7965 4.18397 17.4468 3.94985 17.06 3.79235C16.673 3.63485 16.2583 3.55491 15.8413 3.56091ZM10.3833 3.95056C10.1297 3.6791 9.54555 3.40846 8.17625 3.55993C7.75786 3.55547 7.34539 3.63489 6.95848 3.79235C6.57155 3.94985 6.22021 4.18343 5.92625 4.47888H5.93602C5.55204 5.08484 5.3802 5.80346 5.45067 6.51892C5.36967 7.14742 5.51296 7.78525 5.85496 8.31775C6.06658 8.55612 6.53601 8.8167 7.74559 8.81677C8.13253 8.85276 8.52455 8.80985 8.895 8.68689C9.264 8.56389 9.60648 8.36533 9.89598 8.10583C10.3803 7.53288 10.6631 6.81709 10.7036 6.06872C10.852 4.84037 10.6368 4.22204 10.3833 3.95056Z" fill="#6C707E"/>
<path d="M9.70653 12.097C9.83553 12.097 9.96348 12.1227 10.0835 12.1722C10.2033 12.2217 10.3114 12.2937 10.4028 12.3851C10.4943 12.4766 10.5662 12.5854 10.6157 12.7054C10.6651 12.8253 10.6909 12.9526 10.6909 13.0814V15.0511C10.6909 15.18 10.6651 15.3073 10.6157 15.4271C10.5662 15.5471 10.4943 15.6559 10.4028 15.7474C10.3114 15.8388 10.2033 15.9108 10.0835 15.9603C9.96348 16.0098 9.83553 16.0345 9.70653 16.0345C9.57754 16.0345 9.44956 16.0098 9.32957 15.9603C9.20972 15.9108 9.10165 15.8388 9.01024 15.7474C8.96674 15.7054 8.94415 15.6465 8.90965 15.597C8.96212 15.4037 9.00043 15.2057 9.00047 15.0004C9.00047 14.6224 8.89765 14.2619 8.72215 13.9379V13.0814C8.72216 12.9526 8.74798 12.8253 8.79735 12.7054C8.84685 12.5854 8.91874 12.4766 9.01024 12.3851C9.10165 12.2937 9.20971 12.2217 9.32957 12.1722C9.44956 12.1227 9.57754 12.097 9.70653 12.097Z" fill="#6C707E"/>
<path d="M14.2983 12.097C14.559 12.0971 14.8092 12.2009 14.9936 12.3851C15.1781 12.5696 15.2817 12.8204 15.2817 13.0814V15.0511C15.2817 15.3121 15.1781 15.563 14.9936 15.7474C14.8092 15.9316 14.559 16.0345 14.2983 16.0345C14.0374 16.0345 13.7865 15.9318 13.602 15.7474C13.4176 15.563 13.314 15.3121 13.3139 15.0511V13.0814C13.314 12.8204 13.4176 12.5696 13.602 12.3851C13.7865 12.2007 14.0374 12.097 14.2983 12.097Z" fill="#6C707E"/>
</g>
<defs>
<clipPath id="clip0_525_18514">
<rect width="24" height="24" fill="white"/>
</clipPath>
</defs>
</svg>
